HIERARCHY
ROOT SpineBase
{
  OFFSET 0.000000 0.000000 0.000000
  CHANNELS 6 Xposition Yposition Zposition Zrotation Xrotation Yrotation
  JOINT SpineMid
  {
    OFFSET 0.000000 25.055874 0.000000
    CHANNELS 3 Zrotation Xrotation Yrotation
    JOINT SpineShoulder
    {
      OFFSET 0.172495 18.961257 -0.974238
      CHANNELS 3 Zrotation Xrotation Yrotation
      JOINT Neck
      {
        OFFSET 0.087879 6.386820 -0.646006
        CHANNELS 3 Zrotation Xrotation Yrotation
        JOINT Head
        {
          OFFSET 1.569313 14.505215 -0.654690
          CHANNELS 3 Zrotation Xrotation Yrotation
          End Site
          {
            OFFSET 0 0 0
          }
        }
      }
      JOINT ShoulderLeft
      {
        OFFSET -12.075918 -0.441187 -8.070419
        CHANNELS 3 Zrotation Xrotation Yrotation
        JOINT ElbowLeft
        {
          OFFSET -5.910537 -18.398729 -8.234951
          CHANNELS 3 Zrotation Xrotation Yrotation
          JOINT WristLeft
          {
            OFFSET 9.624820 -10.351843 -19.236516
            CHANNELS 3 Zrotation Xrotation Yrotation
            JOINT HandLeft
            {
              OFFSET 3.170578 -1.297083 -3.480641
              CHANNELS 3 Zrotation Xrotation Yrotation
              JOINT HandTipLeft
              {
                OFFSET 0.846931 -3.449596 -3.666103
                CHANNELS 3 Zrotation Xrotation Yrotation
                End Site
                {
                  OFFSET 0 0 0
                }
              }
              JOINT ThumbLeft
              {
                OFFSET -2.340402 0.191451 -2.083459
                CHANNELS 3 Zrotation Xrotation Yrotation
                End Site
                {
                  OFFSET 0 0 0
                }
              }
            }
          }
        }
      }
      JOINT ShoulderRight
      {
        OFFSET 15.918180 -0.694925 6.213121
        CHANNELS 3 Zrotation Xrotation Yrotation
        JOINT ElbowRight
        {
          OFFSET 7.712953 -18.193420 1.050447
          CHANNELS 3 Zrotation Xrotation Yrotation
          JOINT WristRight
          {
            OFFSET 11.191313 -15.181659 -20.874586
            CHANNELS 3 Zrotation Xrotation Yrotation
            JOINT HandRight
            {
              OFFSET 2.384745 -3.630558 -5.155379
              CHANNELS 3 Zrotation Xrotation Yrotation
              JOINT HandTipRight
              {
                OFFSET 3.476524 -4.383379 -4.254872
                CHANNELS 3 Zrotation Xrotation Yrotation
                End Site
                {
                  OFFSET 0 0 0
                }
              }
              JOINT ThumbRight
              {
                OFFSET 4.002728 2.467576 -0.399423
                CHANNELS 3 Zrotation Xrotation Yrotation
                End Site
                {
                  OFFSET 0 0 0
                }
              }
            }
          }
        }
      }
    }
  }
  JOINT HipLeft
  {
    OFFSET -5.946402 1.779026 -5.713601
    CHANNELS 3 Zrotation Xrotation Yrotation
    JOINT KneeLeft
    {
      OFFSET 4.068259 9.078997 -32.913547
      CHANNELS 3 Zrotation Xrotation Yrotation
      JOINT AnkleLeft
      {
        OFFSET 9.555647 -36.342355 -5.949788
        CHANNELS 3 Zrotation Xrotation Yrotation
        JOINT FootLeft
        {
          OFFSET 4.669649 -2.598429 -9.325106
          CHANNELS 3 Zrotation Xrotation Yrotation
          End Site
          {
            OFFSET 0 0 0
          }
        }
      }
    }
  }
  JOINT HipRight
  {
    OFFSET 6.972553 1.434052 -0.155207
    CHANNELS 3 Zrotation Xrotation Yrotation
    JOINT KneeRight
    {
      OFFSET 30.678155 1.864801 -16.250411
      CHANNELS 3 Zrotation Xrotation Yrotation
      JOINT AnkleRight
      {
        OFFSET -1.709454 -28.973069 -9.306264
        CHANNELS 3 Zrotation Xrotation Yrotation
        JOINT FootRight
        {
          OFFSET 5.081155 -1.606593 -12.096179
          CHANNELS 3 Zrotation Xrotation Yrotation
          End Site
          {
            OFFSET 0 0 0
          }
        }
      }
    }
  }
}
MOTION
Frames: 9
Frame Time: 0.033333
-57.254352 27.129877 355.805524 -0.897317 -3.018162 -31.736808 -0.090746 1.566377 31.712728 -0.390692 0.290374 -0.036356 6.745198 -7.416747 1.594207 0.000000 0.000000 0.000000 29.089487 -2.335810 -12.767780 -4.845622 -1.640244 -27.768274 -6.115228 1.085207 5.704801 44.635946 -6.674791 -30.779935 0.000000 0.000000 0.000000 0.000000 0.000000 0.000000 49.099663 5.505974 1.410298 -45.633491 18.009806 4.798308 -6.361209 2.990596 6.691303 -2.200685 0.078267 2.997853 0.000000 0.000000 0.000000 0.000000 0.000000 0.000000 -3.826326 -3.979510 14.060252 -8.224015 0.100785 20.017922 17.966840 6.063475 -5.859265 0.000000 0.000000 0.000000 0.283678 5.378722 24.284914 -5.002145 4.768216 7.715889 2.269888 -8.296574 -6.415493 0.000000 0.000000 0.000000
-57.319068 27.162654 355.810818 -0.744716 -3.021719 -32.369060 0.028174 1.469570 32.355373 -0.203570 0.242308 -0.008786 4.994068 -7.027085 1.374664 0.000000 0.000000 0.000000 28.565655 -2.076176 -12.892007 -4.075162 -2.293814 -29.184075 -8.577406 2.204501 11.399553 46.364892 -8.233509 -34.385926 0.000000 0.000000 0.000000 0.000000 0.000000 0.000000 52.025012 5.952789 1.180713 -50.645807 17.080415 6.079582 -1.012408 5.476638 3.140739 -6.769958 -4.125770 3.418301 0.000000 0.000000 0.000000 0.000000 0.000000 0.000000 -3.914847 -4.201890 14.596738 -8.262322 0.079361 20.116728 18.122008 6.127448 -6.052645 0.000000 0.000000 0.000000 0.145857 5.390491 24.786086 -5.012433 4.760895 7.815221 2.208087 -8.336661 -6.565823 0.000000 0.000000 0.000000
-57.317795 27.206887 355.801981 -0.515159 -2.984587 -32.800554 -0.029534 1.291667 32.800173 -0.143998 0.176344 0.002065 3.912907 -6.850377 1.257535 0.000000 0.000000 0.000000 28.461945 -1.763853 -13.113194 -3.512331 -2.837889 -30.159367 -11.028729 3.172897 17.022501 47.997607 -7.622377 -38.250649 0.000000 0.000000 0.000000 0.000000 0.000000 0.000000 54.016115 6.981306 0.952546 -53.127438 15.886215 5.511517 0.407595 8.913950 3.880493 -8.450541 -6.415990 2.689737 0.000000 0.000000 0.000000 0.000000 0.000000 0.000000 -4.046231 -4.480132 14.971485 -8.329238 0.090245 20.190788 18.269603 6.176150 -6.175632 0.000000 0.000000 0.000000 -0.054480 5.262490 25.140777 -4.955705 4.781746 7.870620 2.143795 -8.346027 -6.641493 0.000000 0.000000 0.000000
-57.400898 27.284198 355.895719 -0.571081 -3.047283 -33.679747 -0.162581 1.222000 33.673565 -0.210226 0.158607 -0.011919 4.118947 -7.204953 1.330019 0.000000 0.000000 0.000000 28.879857 -1.331624 -13.425453 -3.072065 -3.635251 -30.926420 -13.459413 3.254476 22.140518 48.897755 -10.121985 -40.153814 0.000000 0.000000 0.000000 0.000000 0.000000 0.000000 54.851274 8.354331 0.789814 -53.826305 15.385077 5.126681 0.748584 4.255631 0.812518 -3.639521 -0.329417 4.877325 0.000000 0.000000 0.000000 0.000000 0.000000 0.000000 -3.972358 -4.584537 15.711162 -8.372868 0.130110 20.356986 18.348582 6.145026 -6.214273 0.000000 0.000000 0.000000 -0.222538 5.175432 26.239707 -4.719942 4.933924 7.649492 2.064130 -8.417423 -6.651767 0.000000 0.000000 0.000000
-57.427355 27.305019 355.898107 -0.538612 -3.016819 -33.506016 -0.171399 1.100301 33.500442 -0.193650 0.143340 -0.012157 4.185180 -7.265379 1.349286 0.000000 0.000000 0.000000 29.140263 -0.789654 -13.862305 -3.750745 -4.307344 -29.820805 -11.647344 5.815791 19.206152 45.929022 -7.265061 -36.647730 0.000000 0.000000 0.000000 0.000000 0.000000 0.000000 55.338344 9.275596 0.638073 -54.221526 15.078165 4.706774 -1.846129 0.500791 0.915302 2.138891 5.309078 4.359550 0.000000 0.000000 0.000000 0.000000 0.000000 0.000000 -4.004591 -4.653102 15.476797 -8.382430 0.142404 20.424294 18.383895 6.137184 -6.248234 0.000000 0.000000 0.000000 -0.213992 5.144242 25.957281 -4.702077 4.894936 7.747969 2.032727 -8.399569 -6.672935 0.000000 0.000000 0.000000
-57.398341 27.289117 355.851458 -0.365424 -3.019003 -32.933732 -0.130067 0.966446 32.939094 -0.045239 0.112313 0.007190 3.682655 -6.795094 1.248567 0.000000 0.000000 0.000000 29.261256 -0.466081 -14.301867 -4.792691 -4.536241 -28.384785 -8.615950 9.418802 14.626662 40.798827 -4.602826 -30.708046 0.000000 0.000000 0.000000 0.000000 0.000000 0.000000 54.512619 9.535059 0.499538 -53.071251 15.707373 4.451849 -4.796321 -3.239724 1.104694 7.095038 11.674734 4.575157 0.000000 0.000000 0.000000 0.000000 0.000000 0.000000 -4.193868 -4.683498 14.936083 -8.374807 0.139045 20.391261 18.356769 6.167680 -6.164321 0.000000 0.000000 0.000000 -0.273923 5.118003 25.225433 -4.798830 4.779875 7.919649 2.064688 -8.318764 -6.599571 0.000000 0.000000 0.000000
-57.318168 27.243236 355.711174 -0.097765 -2.917314 -32.244564 0.013901 0.846445 32.269633 0.069850 0.111489 0.032165 2.799998 -6.281062 1.107578 0.000000 0.000000 0.000000 29.186854 -0.350577 -14.616947 -5.874044 -4.304898 -26.703415 -4.331114 11.715717 7.809369 35.375220 -1.272956 -24.366770 0.000000 0.000000 0.000000 0.000000 0.000000 0.000000 53.063244 9.614880 0.462189 -51.012692 16.467642 3.803565 -7.116293 -4.117638 2.637798 9.404046 16.396869 6.061875 0.000000 0.000000 0.000000 0.000000 0.000000 0.000000 -4.410054 -4.809560 14.324960 -8.361236 0.118494 20.297182 18.345319 6.266081 -6.082598 0.000000 0.000000 0.000000 -0.268385 5.085352 24.176720 -5.048074 4.627670 8.278968 2.132685 -8.238048 -6.521650 0.000000 0.000000 0.000000
-57.231228 27.159518 355.586477 0.266490 -2.884834 -31.286265 0.248346 0.776540 31.341193 0.268175 0.091610 0.074092 0.976697 -5.270217 0.842487 0.000000 0.000000 0.000000 28.634625 0.139914 -15.059920 -7.105475 -4.615762 -24.590359 1.530568 13.302810 -1.677801 32.107826 -2.136156 -17.528934 0.000000 0.000000 0.000000 0.000000 0.000000 0.000000 50.805661 9.621464 0.372229 -47.905807 16.939395 2.447130 -8.839975 -2.140220 5.646146 6.425706 18.752465 10.441183 0.000000 0.000000 0.000000 0.000000 0.000000 0.000000 -4.742748 -4.892071 13.541201 -8.356943 0.117608 20.110628 18.340246 6.362587 -6.083012 0.000000 0.000000 0.000000 -0.308760 5.133470 22.823924 -5.347103 4.442587 8.657753 2.190762 -8.162816 -6.520118 0.000000 0.000000 0.000000
-57.138225 27.080459 355.499708 0.719878 -2.927790 -30.450129 0.449984 0.755896 30.542487 0.391645 0.124418 0.112844 -0.952503 -4.106106 0.574249 0.000000 0.000000 0.000000 27.947201 0.665617 -15.451329 -8.357996 -5.016463 -22.315172 7.261077 14.301883 -10.439831 28.504496 -1.011329 -11.731097 0.000000 0.000000 0.000000 0.000000 0.000000 0.000000 48.595698 9.917332 0.298501 -45.513534 16.945608 1.551606 -9.564872 0.602655 8.052891 7.102180 18.365304 10.324170 0.000000 0.000000 0.000000 0.000000 0.000000 0.000000 -5.173860 -4.931856 12.933726 -8.360313 0.097978 19.870357 18.334429 6.469483 -6.089515 0.000000 0.000000 0.000000 -0.485011 5.181270 21.684594 -5.729276 4.271347 8.986772 2.357911 -8.094036 -6.553897 0.000000 0.000000 0.000000
